<?xml version="1.0" standalone="no"?>
<!DOCTYPE svg PUBLIC "-//W3C//DTD SVG 20010904//EN"
 "http://www.w3.org/TR/2001/REC-SVG-20010904/DTD/svg10.dtd">
<svg version="1.0" xmlns="http://www.w3.org/2000/svg"
 width="150.000000pt" height="150.000000pt" viewBox="0 0 150.000000 150.000000"
 preserveAspectRatio="xMidYMid meet">
<metadata>
Created by potrace 1.11, written by Peter Selinger 2001-2013
</metadata>
<g transform="translate(0.000000,150.000000) scale(0.100000,-0.100000)"
fill="#000000" stroke="none">
<path d="M449 1462 c-58 -51 -92 -68 -164 -81 -33 -6 -66 -17 -73 -25 -10 -9
-16 -44 -18 -98 -3 -78 -5 -85 -33 -108 -35 -29 -45 -54 -67 -158 -9 -43 -29
-119 -46 -171 -24 -77 -29 -104 -23 -140 4 -25 8 -71 9 -101 1 -74 41 -160 73
-160 18 0 23 -6 23 -27 0 -18 16 -43 50 -79 36 -38 50 -61 50 -82 0 -38 28
-62 73 -62 26 0 40 -6 51 -22 9 -12 16 -18 17 -13 1 6 4 -1 8 -15 6 -19 13
-24 33 -22 15 1 32 -6 43 -18 10 -11 26 -20 35 -20 9 0 20 -4 26 -8 5 -5 31
-17 58 -27 43 -16 55 -16 100 -5 28 7 85 30 126 50 41 20 91 42 111 49 20 6
46 23 57 36 27 31 32 31 78 0 48 -33 67 -32 97 6 20 26 32 32 73 34 l49 3 3
72 c2 44 -2 77 -9 86 -9 11 -6 14 16 14 42 0 122 49 145 88 15 25 21 57 24
120 3 72 9 95 31 135 18 32 25 55 20 70 -3 12 -10 52 -14 89 -6 43 -16 76 -30
94 -11 15 -21 39 -21 55 0 29 -10 39 -105 99 -39 25 -55 41 -55 57 0 22 -8 29
-197 171 -24 18 -48 30 -53 27 -6 -4 -10 -1 -10 5 0 17 -62 70 -81 70 -10 0
-19 -5 -21 -12 -3 -8 -43 -12 -126 -13 -111 -2 -125 0 -150 19 -15 11 -29 23
-32 27 -3 3 -21 9 -40 11 -19 3 -42 8 -51 12 -10 4 -30 -6 -60 -32z"/>
</g>
</svg>
